<svg xmlns="http://www.w3.org/2000/svg" xmlns:xlink="http://www.w3.org/1999/xlink" id="Capa_1" x="0px" y="0px" viewBox="0 0 512 512" style="enable-background:new 0 0 512 512;" xml:space="preserve">
<g>
	<g>
		<path d="M401.436,454.429c-3.141-4.697-9.479-5.934-14.157-2.792c-37.527,25.22-82.633,39.931-131.278,39.931    c-65.089-0.007-123.916-26.348-166.579-68.995c-42.641-42.655-68.995-101.496-68.995-166.579    c0-57.441,20.549-109.971,54.682-150.851l7.874,38.025c1.127,5.525,6.536,9.076,12.068,7.936c5.518-1.14,9.07-6.549,7.928-12.068    L88.924,71.215l-69.248-1.182c-5.647-0.096-10.278,4.398-10.38,10.039C9.186,85.706,13.68,90.357,19.327,90.46l40.839,0.697    C22.639,135.683,0,193.233,0,256.007C0,397.4,114.607,511.994,255.987,512c52.79,0.007,101.919-16,142.683-43.407    C403.342,465.451,404.577,459.1,401.436,454.429z"></path>
	</g>
</g>
<g>
	<g>
		<path d="M490.092,420.98l-37.881-0.655C489.477,375.866,512,318.535,512,255.993C511.987,114.601,397.393,0.007,256.001,0    C200.8-0.007,149.588,17.504,107.786,47.238c-4.596,3.272-5.668,9.643-2.397,14.238c3.258,4.596,9.643,5.675,14.238,2.404h-0.013    c38.51-27.371,85.522-43.461,136.386-43.469c65.076,0.007,123.923,26.354,166.592,69.003    c42.641,42.662,68.982,101.49,68.989,166.579c-0.007,58.519-21.354,111.965-56.676,153.172l-8.455-40.921    c-1.147-5.525-6.549-9.07-12.068-7.928c-5.532,1.147-9.076,6.549-7.928,12.074l14.02,67.815l69.262,1.188    c5.634,0.102,10.292-4.391,10.388-10.032C500.22,425.727,495.733,421.076,490.092,420.98z"></path>
	</g>
</g>
<g>
	<g>
		<path d="M355.031,170.628H156.984c-15.024,0-27.317,12.292-27.317,27.317v122.926c0,15.024,12.292,27.317,27.317,27.317h198.047    c15.024,0,27.317-12.292,27.317-27.317V197.945C382.348,182.922,370.056,170.628,355.031,170.628z M343.783,191.115v0.001    l-82.921,57.01l0.014-0.014c-1.632,1.168-4.651,2.103-7.779,2.082c-3.319,0.027-6.549-1.031-8.208-2.308l-77.416-56.772H343.783z     M361.867,311.959l-33.19-38.728c-3.681-4.296-10.162-4.787-14.451-1.107c-4.296,3.681-4.787,10.148-1.107,14.443l35.259,41.132    h-184.73l35.266-41.132c3.674-4.296,3.182-10.763-1.113-14.443c-4.289-3.681-10.769-3.189-14.443,1.107l-33.204,38.728    c-0.001,0-0.001-108.141-0.001-108.141l82.627,60.589c6.105,4.425,13.263,6.235,20.324,6.276    c6.666-0.027,13.447-1.666,19.354-5.668l0.013-0.007l89.395-61.463V311.959z"></path>
	</g>
</g>
<g>
</g>
<g>
</g>
<g>
</g>
<g>
</g>
<g>
</g>
<g>
</g>
<g>
</g>
<g>
</g>
<g>
</g>
<g>
</g>
<g>
</g>
<g>
</g>
<g>
</g>
<g>
</g>
<g>
</g>
</svg>